<svg xmlns="http://www.w3.org/2000/svg" width="1133.76" height="377.28" xmlns:v="https://vecta.io/nano"><path d="M188.502 1.004c-.024-.008-.042-.005-.057.01-.647.651-7.352 16.095-25.6 58.979l-19.055 43.48c-.029.044-21.715-5.309-48.188-11.896L34.799 76.738c-.317.108.433 1.516 20.123 37.854l32.289 61.082c-.319.832-15.232 12.597-41.818 32.992C17.09 230.377-.466 244.368.01 244.834c.174.171 45.275 8.302 92.242 16.631l17.387 3.188c.069.069-.033 9.604-.227 21.191l-1.488 82.82c-.206 8.704-.195 8.94.385 8.48.328-.26 3.693-3.211 7.479-6.559l33.445-29.301 43.703-37.414c.652 0 24.409 19.444 74.217 60.744l12 9.949.209-2.307c.341-3.747-.139-16.516-2.467-65.506l-1.67-36.687-.232-6.449-3.201 3.709c-10.767 12.48-21.951 21.401-35.039 27.945-4.904 2.452-8.867 3.884-10.35 3.74-.871-.085-1.152-.361-2.039-2.018-3.796-7.089-21.387-54.924-23.437-63.732-.115-.495-.179-.912-.18-1.279a31.757 31.757 0 0 0-7.895-62.492 31.757 31.757 0 0 0-2.791.146 28.61 28.61 0 0 0-2.496.303 31.757 31.757 0 0 0-.275.051c-.98.172-1.953.382-2.914.654a31.757 31.757 0 0 0-.115.037c-.692.199-1.375.431-2.053.682a31.757 31.757 0 0 0 1.4 60.258c.005.028.023.062.023.088 0 3.188-16.921 50.29-22.645 63.033-1.671 3.72-2.152 4.332-3.4 4.332-2.272 0-9.861-3.251-16.082-6.889-8.053-4.708-14.534-9.729-21.236-16.453-8.966-8.995-14.997-17.563-20.777-29.512-4.944-10.22-8.135-20.859-9.797-32.666-.695-4.941-.965-17.699-.484-22.816 1.221-12.985 4.658-25.361 10.412-37.473 4.873-10.258 11.485-19.461 20.316-28.277 18.068-18.037 38.24-27.616 62.695-29.775 6.243-.551 19.811-.225 25.168.605 20.426 3.165 36.905 11.225 53.115 25.98 15.547 14.152 25.838 31.607 31.314 53.115 2.207 8.668 2.272 9.345 2.277 23.84.003 8.88-.132 14.206-.414 16.48-1.082 8.711-3.619 18.134-6.949 25.803-.831 1.913-3.364 7.102-5.631 11.531s-4.121 8.277-4.121 8.551c0 .594-1.503.844 14.398-2.387l92.607-19.445c.801-.328-5.404-4.958-43.807-32.693l-45.92-34.125c0-.281 11.236-22.885 24.969-50.232l24.578-49.723c-.613 0-17.124 4.472-48.428 13.115l-59.523 15.568c-.894-.343-9.227-17.692-23.994-49.963L188.502 1.004z" fill="#019ec3"/><path d="M628.432 27.393v3.15c0 3.9.124 4.046 4.033 4.707l4.527.814 1.68.332v12.297V60.99l-2-1.621c-2.214-1.795-6.262-3.861-8.709-4.443-8.326-1.983-17.456-.178-23.338 4.613-5.654 4.605-8.947 10.203-10.65 18.107-.887 4.116-.795 13.676.176 18.201 2.433 11.345 8.525 18.31 17.801 20.352 1.056.232 3.456.433 5.332.447 8.098.06 14.122-2.424 20.307-8.375 1.904-1.832 1.727-2.049 2.391 2.961.344 2.598.532 3.168 1.283 3.92l.879.879h8.504 8.506v-3.15c0-2.64-.094-3.234-.582-3.676-.32-.29-2.084-.822-3.92-1.182l-4.059-.809-.721-.154V67.227 27.393h-10.719zm-193.76 2.719v3.109c0 2.403.115 3.225.504 3.613.305.304 2.013.754 4.32 1.139l4.545.797.73.16-.102 27.111c-.095 24.96-.15 27.264-.678 29.031-2.968 9.931-10.555 13.876-22.152 11.516-3.625-.738-4.744-.438-5.23 1.402-.279 1.055-.979 6.034-.979 6.971 0 .434 3.534 1.299 6.916 1.691 3.693.428 9.17.366 12.055-.137 12.827-2.237 20.602-10.695 22.303-24.26.198-1.579.328-12.644.328-28.061V38.742l3.92-.707c5.149-.931 5.422-1.198 5.291-5.154l-.092-2.77h-15.84zm258.604 24.025c-3.235.001-6.656.375-9.643 1.123-3.369.844-8.993 3.605-12.221 5.998-1.423 1.055-2.678 2.061-2.787 2.238s.327 1.204.969 2.281c2.345 3.936 3.697 4.15 8.564 1.361 3.404-1.95 6.433-3.305 8.834-3.953 1.857-.501 7.785-.519 9.439-.029 2.497.739 4.72 2.356 6.131 4.461 1.739 2.595 2.35 5.26 2.35 10.27v3.807l-5.041.219c-23.702 1.028-36.291 8.974-34.34 21.676 1.103 7.183 6.328 11.876 14.572 13.088h.002c3.956.582 8.713.106 13.018-1.301 3.633-1.187 5.934-2.464 9.709-5.389 3.288-2.547 2.918-2.707 3.854 1.65.887 4.129.327 3.898 9.719 4.01l8.029.096-.004-2.176c-.002-2.838-.48-4.529-1.377-4.877-.385-.149-2.093-.516-3.795-.814l-3.094-.541-.139-17.492c-.155-19.621-.179-19.86-2.475-24.646-2.184-4.555-6.469-8.177-11.76-9.943-2.234-.746-5.281-1.117-8.516-1.115zm-113.531.053c-1.931-.03-3.893.14-5.354.52-5.472 1.42-9.928 5.104-13.645 11.275l-1.115 1.85-.016-1.102c-.042-2.675-.863-9.488-1.225-10.156a2.65 2.65 0 0 0-1.199-1.039c-.441-.168-4.537-.305-9.102-.305h-8.299v3.039c0 4.211-.132 4.109 6.881 5.367l2.24.402.082 21.641.082 21.641-.723.166c-.397.091-2.155.417-3.906.725-4.367.766-4.656 1.071-4.656 4.924v2.895h14.881 14.881v-2.895c0-3.853-.289-4.158-4.656-4.924l-3.914-.727-.729-.168.09-15.246.088-15.248 1.439-2.545c2.061-3.642 5.031-6.572 8.174-8.064 2.362-1.122 2.729-1.199 6.209-1.318 2.65-.091 4.315.018 5.877.385 4.204.986 4.337.866 5.365-4.898.827-4.638.94-4.399-2.58-5.51-1.34-.423-3.241-.654-5.172-.684zm194.189.15c-2.851-.026-5.921.234-7.742.738-4.102 1.136-8.554 3.64-12.402 6.977-1.014.879-1.895 1.541-1.959 1.469s-.284-1.356-.49-2.852-.533-3.123-.727-3.615c-.669-1.7-1.373-1.824-10.326-1.824h-8.176v3.15c0 2.62.096 3.237.572 3.668.317.287 2.28.855 4.4 1.271l3.828.752.082 21.637.082 21.635-1.682.332-3.764.686c-3.41.581-3.52.722-3.52 4.477v3.191h14.721 14.719v-2.979c0-1.96-.144-3.175-.422-3.555-.295-.403-1.665-.84-4.559-1.447l-4.139-.867-.082-17.939-.084-17.937 1.93-1.787c5.304-4.911 10.065-6.785 16.627-6.547 3.11.113 3.972.262 5.488.959 3.468 1.593 5.557 4.256 6.508 8.289.405 1.72.484 5.43.488 22.932l.006 20.879h10.398 10.4v-2.861c0-4.038-.25-4.287-5.279-5.256l-3.84-.74-.191-17.25c-.207-18.586-.256-19.135-2.027-23.5-2.554-6.292-7.643-10.474-14.262-11.717-1.237-.232-2.868-.351-4.578-.367zm-273.139.006c-6.38.199-12.65 1.975-17.527 5.287-5.388 3.659-9.47 9.699-11.229 16.613-.448 1.762-.554 3.582-.547 9.387.008 6.434.083 7.472.717 9.76.883 3.189 2.846 7.334 4.707 9.941 3.826 5.361 10.632 9.459 18.041 10.859 1.709.323 4.056.427 7.875.348 6.379-.133 10.071-.92 14.383-3.066 5.608-2.791 9.309-6.479 12.045-12.002 2.179-4.398 3.167-8.446 3.396-13.92.33-7.853-1.127-14.453-4.437-20.102-1.582-2.699-6.347-7.31-9.232-8.934-5.321-2.994-11.811-4.371-18.191-4.172zm123.385 8.256c1.592.004 3.099.145 4.252.436 3.138.792 5.892 2.282 8.18 4.422l2.061 1.926V84.33v14.943l-2.16 2.133c-1.188 1.173-2.663 2.512-3.279 2.977-1.547 1.166-5.277 2.86-7.201 3.27-3.25.691-6.866.599-10.08-.256-4.936-1.314-8.153-5.084-9.969-11.684-.626-2.274-.705-3.349-.711-9.602-.006-6.283.07-7.315.699-9.6 1.864-6.765 5.27-10.813 10.82-12.861 1.852-.684 4.736-1.056 7.389-1.049zm-122.012.311c9.181 0 14.312 3.633 17.152 12.145 1.255 3.76 1.718 7.652 1.486 12.496-.533 11.154-5.008 18.263-12.766 20.283-2.266.59-6.976.868-9.049.533-9.774-1.577-14.618-7.464-15.873-19.297-.626-5.902.598-13.484 2.852-17.66 1.436-2.662 4.315-5.475 6.898-6.742 2.845-1.395 4.766-1.758 9.299-1.758zm202.744 25.92v6.051 6.053l-2.16 1.98c-2.833 2.597-5.947 4.416-9.158 5.35v.002c-1.596.464-3.778.809-5.643.895-7.199.33-11.362-2.564-11.766-8.182-.385-5.367 3.251-8.57 12.148-10.701 4.191-1.004 8.064-1.44 12.818-1.443zm-245.121 57.459c-7.457.019-10.416.44-15.873 2.254-14.76 4.907-24.635 16.151-28.023 31.906-1.017 4.73-1.017 14.59 0 19.32 3.354 15.596 12.817 26.468 27.48 31.572 2.976 1.036 8.331 2.28 10.977 2.551 2.561.262 9.729.194 12.057-.115 20.101-2.668 33.859-15.125 37.609-34.051.939-4.738 1.034-15.187.178-19.377-3.2-15.651-13.253-27.032-28.125-31.84-5.791-1.872-8.494-2.241-16.279-2.221zm326.881.023c-8.257-.016-9.997.323-15.412 2.992-8.73 4.303-13.888 13.008-13.088 22.086.623 7.064 3.205 11.881 8.303 15.496 3.761 2.667 5.308 3.277 18.75 7.383 11.898 3.635 15.945 7.026 16.271 13.637.371 7.521-3.825 13.267-11.217 15.359-2.3.651-3.364.752-8.088.758-4.707.006-5.829-.096-8.32-.75-4.536-1.19-7.84-2.285-7.84-2.6 0-1.174-.728-8.828-.975-10.244-.171-.982-.546-1.937-.848-2.16-.36-.267-1.797-.4-4.322-.4h-3.783l.084 10.77.084 10.768 1.76.568c4.326 1.398 12.995 3.217 17.121 3.592 3.808.346 12.433.189 14.924-.271 14.425-2.666 23.019-12.55 22.99-26.445-.013-6.437-2.308-11.516-6.955-15.395-2.968-2.477-7.267-4.405-16.92-7.582-4.877-1.605-10.095-3.521-11.592-4.26-6.484-3.197-9.078-7.866-7.594-13.658 1.19-4.644 4.483-7.817 9.785-9.428 2.381-.723 8.14-.986 11.68-.533 3.404.436 9.17 1.591 9.76 1.955.281.173.563 1.998.871 5.648.288 3.409.623 5.652.91 6.098.574.89 1.798 1.114 5.42.992l2.881-.098v-9.889-9.891l-1.762-.605c-3.756-1.296-8.356-2.514-12.018-3.182-3.153-.575-5.054-.7-10.861-.711zm-326.9 10.203c2.909.001 5.852.196 7.805.584 9.875 1.96 16.607 6.959 20.705 15.379 2.65 5.445 3.83 11.183 3.83 18.621 0 17.221-9.563 29.517-25.098 32.27-15.689 2.78-29.778-3.496-35.873-15.979-3.409-6.982-4.534-17.012-2.877-25.645 2.559-13.332 10.846-21.879 23.904-24.652 1.818-.386 4.694-.579 7.604-.578zm91.775 14.607c-7.493.002-13.641 2.643-19.279 8.25-1.789 1.779-2.398 2.225-2.406 1.76-.006-.342-.212-2.135-.459-3.982-.678-5.069-.078-4.801-10.748-4.801h-8.623v2.99c0 2.468.101 3.082.574 3.51.538.487 2.193.947 6.547 1.818l1.84.367v31.914 31.912l-3.971.725c-2.678.49-4.134.91-4.479 1.291-.393.435-.512 1.274-.512 3.658v3.096h14.881 14.879v-2.863c0-3.931-.301-4.255-4.799-5.15l-3.92-.828c-.516-.149-.561-.865-.561-9.127v-8.963l1.807 1.611c3.572 3.184 8.806 5.06 14.994 5.379 7.682.395 13.754-1.695 19.064-6.564 7.062-6.475 10.537-17.021 9.563-29.018-.789-9.712-3.486-16.514-8.385-21.143-4.121-3.894-8.183-5.521-14.492-5.807-.512-.023-1.016-.035-1.516-.035zm452.564.109c-4.378.003-5.892.355-9.439 2.189-2.495 1.291-6.947 5.754-8.611 8.635-.773 1.337-1.341 2.022-1.484 1.789-.128-.207-.331-2.05-.451-4.096-.243-4.116-.621-5.997-1.373-6.84-.453-.507-1.32-.561-9.25-.561h-8.75v3.018c0 2.808.052 3.059.771 3.625.461.363 2.044.836 3.922 1.174l3.709.717c.53.142.558 1.382.48 21.805l-.084 21.652-3.805.715c-2.245.423-4.047.938-4.398 1.256-.499.452-.596 1.02-.596 3.529v2.99h14.719 14.721v-2.99c0-3.844-.046-3.888-5.092-4.789l-3.867-.691v-15.156-15.156l1.355-2.607c1.584-3.048 4.934-6.624 7.467-7.967 3.637-1.928 7.913-2.322 12.981-1.193 2.664.593 2.985.606 3.678.152.417-.274.764-.528.764-.568s.345-1.944.764-4.232c.5-2.738.657-4.292.453-4.543-.17-.21-1.271-.713-2.445-1.119-1.789-.618-2.786-.738-6.137-.736zm-313.713.022c-2.504.029-5.048.278-6.75.736-4.572 1.232-9.337 3.931-13.156 7.451-1.603 1.477-1.414 1.713-2.084-2.611-.396-2.555-.734-3.445-1.549-4.07-.369-.283-2.844-.393-9.068-.4l-8.559-.01v2.99c0 3.837.083 3.918 5.043 4.895l3.836.748c.044.004.08 9.771.08 21.705v21.697l-3.715.604c-5.109.83-5.244.955-5.244 4.824v3.018h14.879 14.881v-2.545c0-2.923-.378-3.997-1.562-4.455-.655-.253-7.082-1.641-7.602-1.641-.063 0-.117-8.104-.117-18.01V188.17l1.682-1.639c4.894-4.773 10.851-7.131 17.012-6.736 7.517.482 11.248 4.317 12.031 12.363.165 1.691.305 11.533.309 21.873l.008 18.801h10.252 10.25l-.09-3.086c-.085-2.871-.148-3.128-.893-3.674-.455-.333-2.416-.892-4.541-1.295l-3.74-.709-.119-17.619c-.133-19.751-.087-19.305-2.557-24.498-1.02-2.145-1.808-3.233-3.729-5.15-2.635-2.63-4.93-3.943-8.674-4.963-1.543-.421-4.009-.611-6.514-.582zm160.15.166c-3.763-.018-7.859.301-10.062.889-5.457 1.456-9.376 3.697-13.178 7.533-4.1 4.137-6.556 8.756-7.746 14.566-.616 3.006-.696 12.399-.133 15.383.933 4.942 3.295 10.168 6.205 13.736 4.288 5.257 11.65 8.993 19.527 9.91 7.186.837 13.987-.24 19.91-3.152 5.675-2.791 9.244-6.364 12.004-12.016 1.877-3.845 2.742-7.053 3.258-12.08.929-9.051-1.449-18.327-6.268-24.443-4.039-5.127-10.277-8.645-17.586-9.916-1.536-.267-3.674-.399-5.932-.41zm195.482.143c-6.469.013-8.3.31-12.676 2.063-8.923 3.573-14.803 11.286-16.635 21.824-.781 4.494-.486 12.801.602 16.9 1.422 5.36 3.664 9.454 7.25 13.238 3.841 4.053 8.541 6.605 14.26 7.744 3.139.625 11.232.369 14.938-.473 5.166-1.174 9.516-3.39 13.055-6.65l1.75-1.613-1.816-2.414c-2.53-3.361-3.587-3.514-6.859-.998-6.235 4.795-16.285 5.642-22.652 1.91-2.457-1.44-4.92-4.272-6.418-7.383-2.095-4.351-2.561-6.89-2.529-13.762.03-6.428.479-8.825 2.416-12.895 1.228-2.579 4.484-5.995 6.84-7.176 3.47-1.739 4.798-2.01 9.758-1.994 4.745.016 9.832.8 10.105 1.559.069.191.336 2.278.594 4.639.327 2.994.623 4.447.977 4.801.372.373 1.311.538 3.541.619l3.035.109-.086-8.082-.088-8.082-2.719-.924c-1.496-.508-4.521-1.386-6.721-1.949-3.807-.975-4.286-1.023-9.92-1.012zm-431.359.008c-7.002.024-9.133.47-14.24 2.988-7.127 3.514-11.949 9.46-14.428 17.791-.72 2.421-.883 3.682-1.014 7.912-.094 3.056-.006 6.071.225 7.68.445 3.102 2.187 8.55 3.549 11.098 4.187 7.833 11.847 13.03 21.428 14.537.44.069 2.745.147 5.121.17 8.481.083 15.455-1.808 21.51-5.832 2.226-1.48 3.837-3.084 3.633-3.617-.395-1.029-3.303-4.244-4.113-4.547-1.091-.408-1.253-.358-5.031 1.568-1.672.853-4.408 2.027-6.08 2.607-2.981 1.036-3.143 1.056-8.479 1.049-5.193-.007-5.549-.049-7.83-.916-4.032-1.533-6.392-3.343-8.854-6.793-2.449-3.431-3.957-8.287-3.957-12.742v-2.094h21.885c21.092 0 21.913-.022 22.641-.613.723-.587.755-.785.73-4.561-.081-12.517-6.773-21.692-18.215-24.973-2.271-.651-3.228-.731-8.48-.713zm492.158 0c-5.078.017-6.282.12-8.478.727-10.99 3.035-18.407 11.083-20.774 22.539-.668 3.235-.663 10.088.012 14.018 2.347 13.675 11.288 22.603 24.76 24.723 2.007.315 9.702.169 12.174-.232 3.252-.528 7.067-1.565 9.158-2.49 4.35-1.924 9.303-5.583 8.918-6.588-.402-1.049-3.275-4.214-4.101-4.52-1.091-.403-1.256-.353-5.031 1.572-1.672.853-4.409 2.024-6.08 2.604-2.954 1.024-3.186 1.054-8.318 1.061-5.709.008-6.82-.211-10.574-2.088-6.045-3.022-10.214-10.617-10.225-18.625v-1.84h21.936 21.934l.832-.83c.827-.827.828-.848.641-4.721-.405-8.353-2.952-14.302-8.205-19.166-2.582-2.391-6.099-4.284-10.096-5.43-2.271-.651-3.228-.731-8.479-.713zm-221.758.779v2.846c0 3.909.107 4.017 4.959 5.006l3.889.785c.026.002.115 7.743.197 17.203.139 16.051.193 17.371.809 19.76.806 3.129 1.617 5.062 3.053 7.273 2.937 4.525 7.251 7.323 12.967 8.41 3.128.595 8.647.383 11.822-.453 4.389-1.155 8.813-3.609 12.469-6.918 1.098-.993 1.996-1.721 1.996-1.617s.22 1.664.49 3.467c.401 2.679.637 3.424 1.287 4.078l.795.801 8.633.094 8.635.096v-3.055c0-4.227.16-4.102-6.881-5.4l-2.24-.412-.082-25.98-.082-25.982h-10.238-10.236v2.895c0 3.934.189 4.115 5.367 5.08l3.912.729v18.012 18.012l-2.07 1.938c-5.268 4.928-11.772 7.142-18.09 6.16-4.303-.669-7.114-2.422-8.775-5.475-1.931-3.548-1.891-3.036-2.021-26.148l-.121-21.201h-10.221zm-270.916 6.848c.943-.008 1.916.043 2.916.15 3.627.39 6.068 1.299 8.582 3.197 3.142 2.373 5.184 6.473 5.563 11.166l.188 2.318h-17.479-17.479l.195-1.039c.4-2.128 1.733-5.892 2.645-7.471 3.12-5.404 8.269-8.267 14.869-8.322zm492.861.066c2.219.033 4.463.283 5.918.738 2.44.763 5.517 2.654 6.799 4.178 1.945 2.311 3.736 7.168 3.736 10.125v1.725h-17.395-17.397l.303-1.68c.432-2.391 1.856-5.898 3.242-7.986 2.214-3.336 4.904-5.285 9.022-6.537 1.357-.413 3.552-.596 5.772-.562zm-559.066.457c4.264-.002 7.688 1.196 10.322 3.611 3.762 3.45 5.613 8.606 6.043 16.836.719 13.76-4.408 22.769-14.125 24.818-2.781.586-7.077.576-9.553-.023-2.806-.679-6.097-2.554-8.236-4.693l-1.891-1.891v-14.787-14.789l2.32-2.307c4.744-4.719 9.327-6.773 15.119-6.775zm301.412.004c1.891-.038 3.779.112 5.469.469 8.951 1.888 13.738 9.693 13.738 22.396 0 4.775-.482 7.932-1.738 11.395-2.251 6.203-6.135 9.765-12 11.002-2.729.576-7.01.58-9.6.01-5.345-1.177-8.644-3.442-11.191-7.686-4.451-7.416-4.42-21.998.063-29.559 1.477-2.492 4.466-5.323 6.695-6.344 2.255-1.032 5.413-1.62 8.564-1.684zm-84.176 82.588c-4.24-.162-8.246 3.233-8.248 7.797-.002 3.004 1.615 5.298 4.766 6.766 4.068 1.894 8.798-.084 10.746-4.494 1.476-3.341-.481-7.561-4.338-9.357-.957-.446-1.947-.673-2.926-.711zm144.123.019c-1.873.055-3.754.79-5.307 2.275-4.02 3.846-2.879 9.837 2.336 12.266 1.015.473 2.204.75 3.211.75 4.098 0 8.184-3.944 8.154-7.871-.004-.508-.3-1.571-.658-2.363-1.515-3.352-4.615-5.148-7.736-5.057zm-441.629 1.525l-6.254.086-6.254.086-16.465 38.721-16.775 38.926c-.171.114-1.523.534-3.004.932-3.388.91-3.617 1.209-3.617 4.693v2.648h13.119 13.119v-2.648c0-3.536-.212-3.799-3.828-4.742-1.59-.415-2.886-.902-2.881-1.082s1.554-4.07 3.443-8.646l3.436-8.32h19.672 19.672l3.441 8.32 3.443 8.656c.001.185-1.257.664-2.797 1.066-3.829 1.001-3.92 1.106-3.92 4.566v2.83h13.119 13.119v-2.648c0-3.485-.23-3.783-3.617-4.693-1.481-.398-2.83-.818-2.998-.932s-7.701-17.668-16.74-39.012zm399.791 5.383l-3.555.121c-3.124.107-3.618.201-4.09.783-.395.488-.856 3.108-1.746 9.914-.665 5.088-1.325 9.466-1.465 9.73-.186.349-1.637.655-5.34 1.121l-5.086.641-.094 2.48c-.086 2.283-.028 2.544.707 3.279.773.773.938.799 5.133.799h4.334l.002 19.441c.001 11.853.132 20.251.334 21.52.94 5.897 5.062 10.103 11.152 11.381 2.597.545 7.674.372 10.592-.361 2.532-.636 6.809-2.647 8.285-3.895l1.084-.916-1.885-2.865c-1.301-1.977-2.103-2.895-2.594-2.965-.391-.055-1.615.4-2.721 1.014-5.745 3.189-11.636 1.682-12.687-3.248-.245-1.151-.361-7.707-.361-20.4v-18.705h9.279 9.279v-3.84-3.84h-9.279-9.279v-10.596zm-406.064 6.32c.124.077.391.797.594 1.602s3.748 9.757 7.879 19.895l7.512 18.701c0 .149-7.219.271-16.039.271-15.12 0-16.028-.031-15.879-.559.087-.308 3.258-8.061 7.045-17.229s7.285-18.052 7.773-19.744.991-3.014 1.115-2.937zm353.062 12.381c-1.491-.025-3.043.049-4.652.223-5.726.617-10.023 2.035-14.719 4.857-2.856 1.717-5.991 4.12-6.012 4.609-.027.638 2.724 4.472 3.504 4.883 1.316.694 3.144.242 6.082-1.508 5.631-3.354 10.037-4.659 14.877-4.406 5.846.306 9.283 2.771 11.066 7.938.558 1.616.743 3.024.863 6.613l.152 4.561h-3.16c-11.452.001-22.801 2.627-29.111 6.738-1.123.732-2.894 2.241-3.936 3.354-2.254 2.409-3.242 4.705-3.477 8.066-.31 4.439 1.018 8.375 3.885 11.514 2.192 2.4 4.103 3.443 8.678 4.742 1.156.328 3.021.43 6.721.363 4.789-.086 5.31-.157 8.07-1.105 4.201-1.443 6.236-2.553 9.809-5.346 1.727-1.35 3.179-2.409 3.229-2.352s.403 1.545.785 3.305c1.029 4.745.42 4.46 9.795 4.58l7.832.102v-3c0-1.942-.145-3.197-.412-3.562-.285-.39-1.542-.782-4.08-1.268l-3.668-.701-.164-18.236-.164-18.234-.867-2.561c-3.06-9.026-10.491-13.996-20.926-14.168zm225.336.254c-1.874.004-3.682.144-5.09.436-4.697.971-9.372 3.343-13.346 6.775-1.302 1.124-2.457 1.941-2.568 1.814s-.394-1.599-.625-3.271c-.357-2.582-.553-3.173-1.299-3.92l-.879-.879h-8.504-8.504v2.979c0 1.891.146 3.181.402 3.531.43.587 2.467 1.186 6.236 1.834l2.32.398v21.676 21.674l-3.92.713c-2.156.392-4.172.933-4.48 1.203-.462.405-.559 1.041-.559 3.645v3.154l14.799-.084 14.801-.084v-2.926c0-3.946-.071-4.014-5.146-4.967l-3.973-.746v-18.129-18.127l1.797-1.643c4.877-4.458 9.889-6.552 15.645-6.541 5.093.01 8.62 1.558 10.92 4.793 2.238 3.148 2.169 2.378 2.353 26.525l.166 21.76 10.32.086 10.32.084v-2.906c0-3.255-.222-3.901-1.508-4.4-.693-.269-7.111-1.662-7.658-1.662-.063 0-.115-7.189-.115-15.977 0-9.681-.136-16.964-.346-18.48-.962-6.97-4.446-12.723-9.5-15.689-.751-.441-2.407-1.164-3.68-1.607-1.947-.678-5.255-1.048-8.379-1.041zm-499.531.025a35.79 35.79 0 0 0-1.801.002c-1.593.042-3.177.19-4.818.438-5.829.879-9.798 2.742-13.201 6.195-3.592 3.645-4.854 6.863-4.584 11.689.195 3.472 1.001 5.822 2.705 7.896 3.084 3.754 6.949 5.791 16.416 8.648 7.693 2.322 9.857 3.245 11.918 5.08 1.189 1.059 1.632 1.738 2.037 3.133.901 3.099.142 5.861-2.25 8.182-1.495 1.451-2.838 2.185-5.475 2.992-3.765 1.152-12.393.559-16.752-1.15l-1.479-.58-.227-2.357c-.663-6.916-.512-6.678-4.277-6.678h-2.697v7.951 7.951l4.08.992c2.244.545 5.16 1.142 6.48 1.326l3.199.471c.44.074 3.537.094 6.881.045 5.155-.075 6.443-.198 8.471-.795 5.82-1.715 10.988-5.64 13.082-9.941 2.079-4.27 2.48-9.637 1.012-13.531-.864-2.291-3.432-5.15-6.191-6.893-2.285-1.443-8.056-3.609-14.609-5.484-8.785-2.514-11.6-4.732-11.658-9.186-.022-1.701.108-2.161.943-3.35 3.039-4.325 8.491-5.832 16.715-4.623 1.982.291 3.801.605 4.041.697.428.164.546.867 1.031 6.174.304 3.326.588 3.555 4.443 3.555h3.041v-7.818-7.816l-1.84-.535c-5.942-1.73-10.41-2.579-14.637-2.68zm50.379.014c-1.609.038-3.192.18-4.783.422-5.51.839-9.27 2.526-12.607 5.654-3.644 3.415-5.312 6.935-5.312 11.211 0 4.376 1.392 7.721 4.371 10.508 3.391 3.172 6.161 4.444 16.43 7.543 6.039 1.822 8.45 2.879 10.215 4.473 1.68 1.518 2.199 2.508 2.453 4.678.517 4.406-2.314 7.947-7.703 9.639-1.844.579-2.959.699-6.246.674-4.26-.032-6.936-.421-10.152-1.477-2.272-.746-2.11-.39-2.629-5.795-.166-1.73-.472-3.35-.68-3.6-.274-.33-1.153-.453-3.217-.453h-2.842v7.949 7.951l3.6.898c1.98.493 5.257 1.158 7.281 1.477 5.34.841 14.837.666 18.23-.334 3.829-1.128 7.223-3.072 9.807-5.617 3.723-3.669 5.076-7.037 5.08-12.645.002-3.475-.055-3.8-1.018-5.832-2.444-5.159-7.022-7.802-20.18-11.646-9.106-2.661-11.907-4.807-12.01-9.199-.051-2.19.801-3.822 2.889-5.529 3.395-2.776 8.045-3.567 14.895-2.531 1.998.302 3.793.648 3.986.768s.561 2.15.818 4.512c.372 3.415.585 4.379 1.045 4.715.381.279 1.595.424 3.559.424h2.979v-7.826-7.826l-2.16-.641c-6.212-1.842-11.271-2.659-16.098-2.543zm60.977 0c-4.164 0-8.327.61-11.871 1.832-9.663 3.331-16.557 11.499-18.4 21.803-.557 3.111-.557 11.93 0 15.041 2.244 12.543 11.434 21.287 24.539 23.348 1.041.164 4.126.245 6.854.182 3.972-.092 5.566-.272 8.004-.904 8.559-2.221 14.589-6.931 18.084-14.123 2.007-4.13 2.929-7.503 3.42-12.512.678-6.924-.503-13.564-3.498-19.67-1.62-3.301-2.105-3.977-4.717-6.561-3.284-3.249-6.31-5.145-10.541-6.604-3.544-1.222-7.71-1.832-11.873-1.832zm309.246.008c-11.215.022-20.12 4.311-25.437 12.303-2.084 3.133-3.702 6.941-4.471 10.525-.77 3.59-.769 13.062.002 16.641 2.654 12.312 11.535 20.529 24.367 22.547 1.041.164 4.126.245 6.854.182 4.042-.094 5.551-.268 8.156-.943 11.106-2.879 18.364-10.523 20.678-21.779 1.242-6.043 1.098-12.623-.398-18.336-3.349-12.787-13.28-20.408-27.477-21.086a45.7 45.7 0 0 0-2.273-.053zm-239.879.019c-15.506-.165-26.726 8.92-29.369 23.938-.62 3.523-.613 10.631.012 14.27 2.371 13.795 12.066 23.15 24.951 24.074 10.519.755 20.083-2.203 25.574-7.908l1.254-1.303-1.91-2.332c-1.701-2.074-2.047-2.34-3.146-2.432-1.052-.087-1.585.14-3.586 1.537-4.394 3.068-7.85 4.156-13.227 4.156-5.59.002-9.025-1.311-12.473-4.768-2.405-2.412-4.081-5.481-5.178-9.482-.962-3.508-1.055-13.076-.164-16.873.694-2.96 2.583-6.877 4.264-8.84 2.342-2.735 6.422-4.831 10.693-5.494 2.631-.408 8.236.001 11.605.848 1.785.448 2.135.647 2.146 1.217.008.375.205 2.377.438 4.449.558 4.965.619 5.031 4.559 5.031h2.99v-7.988-7.988l-4.057-1.297c-5.52-1.765-9.493-2.558-13.863-2.77a39.96 39.96 0 0 0-1.514-.045zm29.033.889v2.984c0 3.859.217 4.084 4.641 4.844l3.922.717.723.166-.082 21.639-.082 21.641-4 .721c-5.071.914-5.121.963-5.121 5.088v3.008l14.801-.084 14.799-.082v-2.953c0-3.925-.122-4.044-5.139-4.992l-3.82-.723-.082-25.986-.082-25.986H760.27zm144.641 0v3.018c0 2.83.048 3.055.793 3.641.49.385 1.991.834 3.92 1.172l3.85.715.721.166-.082 21.639-.082 21.641-4 .721c-5.07.913-5.119.962-5.119 5.084v3.004h14.879 14.881v-2.861c0-4.078-.271-4.347-5.291-5.254l-3.828-.691-.082-25.996-.082-25.996H904.91zm67.303 7.486c.399.008.775.028 1.123.06 6.882.642 11.04 3.232 13.891 8.656 2.428 4.62 3.529 11.477 2.859 17.797-.487 4.596-1.065 6.784-2.68 10.146-2.177 4.534-5.465 7.237-10.324 8.484-2.438.626-8.645.617-11.053-.016-2.884-.758-6.258-2.589-7.963-4.32-2.042-2.074-3.715-5.31-4.746-9.18-.728-2.732-.833-3.768-.852-8.396-.023-5.607.239-7.477 1.619-11.561 1.631-4.824 5.357-8.926 9.523-10.484 1.973-.738 5.809-1.246 8.602-1.187zm-310.344.102c7.551.009 12.25 2.336 15.367 7.609 4.14 7.005 4.721 19.26 1.311 27.652-2.172 5.347-5.596 8.418-10.904 9.781-2.301.591-8.551.614-10.908.041-2.194-.533-5.613-2.168-7.203-3.445-1.28-1.029-3.609-4.277-4.436-6.187-2.056-4.749-2.763-12.03-1.795-18.455.856-5.681 2.506-9.348 5.609-12.467 3.278-3.295 6.831-4.536 12.959-4.529zm173.613 25.635l-.086 6.494-.086 6.494-2.4 2.016c-2.97 2.493-5.934 4.078-9.166 4.904-1.363.349-3.639.699-5.057.777-7.162.396-11.698-3.015-11.687-8.789.007-3.808 1.647-6.037 5.91-8.033 4.636-2.171 9.899-3.202 18.646-3.658z" fill="#333"/></svg>